<?xml version="1.0" encoding="utf-8"?>
<?xml-stylesheet type="text/xsl" href="rss1.xsl"?>
<rss version="2.0" xmlns:atom="http://www.w3.org/2005/Atom" xmlns:content="http://purl.org/rss/1.0/modules/content/" xmlns:dc="http://purl.org/dc/elements/1.1/" xmlns:media="http://search.yahoo.com/mrss/">
<channel>
 <title>Getty</title>
 <link>http://www.gettyimg.com/</link>
 <atom:link href="http://www.gettyimg.com/" rel="self" type="application/rss+xml" />

 
                <item>
                <title><![CDATA[【Cinema Center】SERIES - Rubble &amp; Crew - Season 1 - 1080p Amazon WEB-DL DDP5.1 H.264-LAZY]]></title>
                <link><![CDATA[https://sharemania.us/threads/rubble-crew-season-1-1080p-amazon-web-dl-ddp5-1-h-264-lazy.251312/]]></link>
                <description><![CDATA[<article>
<blockquote class="messageText SelectQuoteContainer ugc baseHtml">
Rubble &amp; Crew:<img src="https://artworks.thetvdb.com/banners/v4/series/428524/banners/63cad621b824e.jpg" class="bbCodeImage LbImage" alt="[​IMG]" data-url="https://artworks.thetvdb.com/banners/v4/series/428524/banners/63cad621b824e.jpg" style=""> <br>
<br>
<div class="bbCodeBlock bbCodeQuote">
<aside>
<blockquote class="quoteContainer"><div class="quote"><i><b>Synopsis:</b></i><br>
Follow Rubble and his pup family as they use their awesome construction vehicles to build and repair whatever the town of Builder Cove needs in high-stakes adventures.</div><div class="quoteExpand">Click to expand...</div></blockquote>
</aside>
</div>
<div class="ToggleTriggerAnchor bbCodeSpoilerContainer">
<button type="button" class="button bbCodeSpoilerButton ToggleTrigger Tooltip JsOnly" data-target="> .SpoilerTarget"><span>Spoiler: <span class="SpoilerTitle">MediaInfo</span></span></button>
<div class="SpoilerTarget bbCodeSpoilerText">General<br>
Unique ID : 216112289104583783180498574066604231332 (0xA295B68032E69F5E33D5AA389ADACAA4)<br>
Complete name : Rubble.and.Crew.S01E01.The.Crew.Builds.a.Bridge.1080p.AMZN.WEB-DL.DDP5.1.H.264-LAZY.mkv<br>
Format : Matroska<br>
Format version : Version 4<br>
File size : 1.34 GiB<br>
Duration : 23 min 13 s<br>
Overall bit rate : 8 256 kb/s<br>
Frame rate : 23.976 FPS<br>
Encoded date : 2024-07-15 17:43:13 UTC<br>
Writing application : mkvmerge v85.0 ('Shame For You') 64-bit<br>
Writing library : libebml v1.4.5 + libmatroska v1.7.1<br>
<br>
Video<br>
ID : 1<br>
Format : AVC<br>
Format/Info : Advanced Video Codec<br>
Format profile : High@L4<br>
Format settings : CABAC / 4 Ref Frames<br>
Format settings, CABAC : Yes<br>
Format settings, Reference frames : 4 frames<br>
Codec ID : V_MPEG4/ISO/AVC<br>
Duration : 23 min 13 s<br>
Bit rate mode : Constant<br>
Bit rate : 7 614 kb/s<br>
Nominal bit rate : 10 000 kb/s<br>
Width : 1 920 pixels<br>
Height : 1 080 pixels<br>
Display aspect ratio : 16:9<br>
Frame rate mode : Constant<br>
Frame rate : 23.976 (24000/1001) FPS<br>
Color space : YUV<br>
Chroma subsampling : 4:2:0<br>
Bit depth : 8 bits<br>
Scan type : Progressive<br>
Bits/(Pixel*Frame) : 0.153<br>
Stream size : 1.24 GiB (92%)<br>
Default : Yes<br>
Forced : No<br>
Color range : Limited<br>
Color primaries : BT.709<br>
Transfer characteristics : BT.709<br>
Matrix coefficients : BT.709<br>
<br>
Audio<br>
ID : 2<br>
Format : E-AC-3<br>
Format/Info : Enhanced AC-3<br>
Commercial name : Dolby Digital Plus<br>
Codec ID : A_EAC3<br>
Duration : 23 min 13 s<br>
Bit rate mode : Constant<br>
Bit rate : 640 kb/s<br>
Channel(s) : 6 channels<br>
Channel layout : L R C LFE Ls Rs<br>
Sampling rate : 48.0 kHz<br>
Frame rate : 31.250 FPS (1536 SPF)<br>
Compression mode : Lossy<br>
Stream size : 106 MiB (8%)<br>
Language : English<br>
Service kind : Complete Main<br>
Default : Yes<br>
Forced : No<br>
<br>
Text<br>
ID : 3<br>
Format : UTF-8<br>
Codec ID : S_TEXT/UTF8<br>
Codec ID/Info : UTF-8 Plain Text<br>
Duration : 22 min 42 s<br>
Bit rate : 68 b/s<br>
Frame rate : 0.320 FPS<br>
Count of elements : 436<br>
Stream size : 11.4 KiB (0%)<br>
Title : SDH<br>
Language : English<br>
Default : No<br>
Forced : No</div>
</div><br>
Screenshots:<br>
<img src="https://ptpimg.me/5fx140.jpg" class="bbCodeImage LbImage" alt="[​IMG]" data-url="https://ptpimg.me/5fx140.jpg" style=""> <br>
<div class="bbCodeBlock bbCodeVfcHH HiddenContent">
<div class="attribution type">Hidden Content:</div>
<blockquote>You must either reply or click 'Like' to see the hidden information contained here.</blockquote>
</div>
<div class="messageTextEndMarker">&nbsp;</div>
</blockquote>
</article>]]></description>
                <author><![CDATA[LazyRips]]></author>
                </item>

                
                <item>
                <title><![CDATA[【Singles (lossless)】FLAC - RIIZE – Lucky FLAC 24-Bit 48kHz (Hi-Res)]]></title>
                <link><![CDATA[https://sharemania.us/threads/riize-%E2%80%93-lucky-flac-24-bit-48khz-hi-res.251311/]]></link>
                <description><![CDATA[<article>
<blockquote class="messageText SelectQuoteContainer ugc baseHtml">
Album Information<br>
Artist Name: RIIZE<br>
Sort name: RIIZE<br>
Title: Lucky<br>
Genre: J-pop<br>
Release date: 2024.07.29<br>
Total length: 10:09<br>
Type: Single<br>
<br>
Tracklist (10:09):<br>
1. Lucky (02:47)<br>
2. Be My Next (03:19)<br>
3. Same Key (04:03)<br>
<br>
<div class="bbCodeBlock bbCodeVfcHH HiddenContent">
<div class="attribution type">Hidden Content:</div>
<blockquote>You must reply before you can see the hidden data contained here.</blockquote>
</div>
<div class="messageTextEndMarker">&nbsp;</div>
</blockquote>
</article>]]></description>
                <author><![CDATA[Sergiote12]]></author>
                </item>

                
                <item>
                <title><![CDATA[【UPSCALED】P. Diddy, Christina Aguilera - Tell Me (2160P)]]></title>
                <link><![CDATA[https://sharemania.us/threads/p-diddy-christina-aguilera-tell-me-2160p.251313/]]></link>
                <description><![CDATA[<article>
<blockquote class="messageText SelectQuoteContainer ugc baseHtml">
wow thanks!
<div class="messageTextEndMarker">&nbsp;</div>
</blockquote>
</article>]]></description>
                <author><![CDATA[vjrhymes]]></author>
                </item>

                </channel></rss>